<?xml version="1.0" encoding="UTF-8"?> <svg xmlns="http://www.w3.org/2000/svg" width="225" height="229" viewBox="0 0 225 229" fill="none"><path d="M209.71 99.8438H142.364L140.185 151.674L169.851 150.772L196.235 149.969L209.71 149.559V99.8438Z" fill="#D1EAFF"></path><path d="M34.2844 170.071H45.6903L46.0594 118.24L41.0349 119.142L36.5664 119.946L34.2844 120.355V170.071Z" fill="#D1EAFF"></path><path d="M51.9846 170.07H63.3905L63.7596 138.697L58.7351 139.244L54.2666 139.729L51.9846 139.977V170.07Z" fill="#D1EAFF"></path><path d="M87.3848 170.07H98.79L99.1598 154.422L94.1348 154.694L89.6663 154.936L87.3848 155.061V170.07Z" fill="#D1EAFF"></path><path d="M69.6846 170.071H81.09L81.4598 126.484L76.4348 127.243L71.9666 127.919L69.6846 128.263V170.071Z" fill="#D1EAFF"></path><path d="M194.994 180.299L198.061 188.202L208.779 182.954L201.886 193.08L210.76 197.881L200.521 199.164L201.129 207.638L194.994 201.871L186.52 209.764L189.467 199.164L181.21 197.881L188.102 193.08L185.239 186.312L191.927 188.202L194.994 180.299Z" fill="black"></path><path d="M196.344 182.902L198.945 189.604L199.142 190.112L199.631 189.872L208.654 185.455L202.823 194.02L202.512 194.478L202.999 194.742L210.5 198.8L201.809 199.889L201.339 199.948L201.373 200.421L201.889 207.618L196.687 202.729L196.346 202.408L196.003 202.727L188.827 209.411L191.299 200.519L191.45 199.978L190.894 199.891L183.869 198.8L189.738 194.712L190.071 194.48L189.913 194.107L187.456 188.298L193.141 189.904L193.579 190.028L193.743 189.604L196.344 182.902Z" fill="#194866" stroke="#FEDFC1"></path><path d="M59.4021 52.8308L61.2707 57.6483L61.4677 58.1561L61.9569 57.9165L68.4197 54.7504L64.235 60.9021L63.9238 61.3596L64.4104 61.623L69.7936 64.5374L63.5471 65.3207L63.0768 65.3797L63.1106 65.8526L63.4815 71.0296L59.7446 67.5148L59.4036 67.194L59.0612 67.5132L53.9085 72.3154L55.6766 65.9507L55.8271 65.4091L55.2717 65.3228L50.218 64.537L54.4416 61.5935L54.774 61.3619L54.6163 60.9887L52.843 56.7927L56.9312 57.9486L57.3689 58.0724L57.5334 57.6483L59.4021 52.8308Z" fill="#F98012" stroke="#FEDFC1"></path><path d="M67.9596 120.729C66.9341 115.415 62.2292 105.586 60.8122 108.641C59.0409 112.458 59.7245 123.387 62.1174 124.023C64.5102 124.659 61.0298 108.715 58.0465 109.838C55.6598 110.737 57.0521 115.402 58.0465 117.623C57.6943 114.629 57.2418 110.437 52.3596 107.63" stroke="black" stroke-linecap="round"></path><path d="M42.6096 78.8146V19.6562H120.16V33.2054H150.235V76.4864" stroke="#FEDFC1"></path><path d="M36.8601 196.686C36.8601 200.045 36.1165 206.599 32.8164 206.599C29.5163 206.599 24.9094 200.045 24.9094 196.686C24.9094 193.327 27.5847 190.604 30.8848 190.604C34.1849 190.604 36.8601 193.327 36.8601 196.686Z" fill="black"></path><path d="M53.5143 196.686C53.5143 200.045 52.7706 206.599 49.4705 206.599C46.1704 206.599 41.5635 200.045 41.5635 196.686C41.5635 193.327 44.2387 190.604 47.5389 190.604C50.839 190.604 53.5143 193.327 53.5143 196.686Z" fill="black"></path><path d="M70.1415 196.686C70.1415 200.045 69.3979 206.599 66.0977 206.599C62.7976 206.599 58.1907 200.045 58.1907 196.686C58.1907 193.327 60.866 190.604 64.1661 190.604C67.4662 190.604 70.1415 193.327 70.1415 196.686Z" fill="black"></path><path d="M186.835 62.9949C186.835 64.5658 186.484 67.6311 184.931 67.6311C183.378 67.6311 181.21 64.5658 181.21 62.9949C181.21 61.4239 182.469 60.1504 184.022 60.1504C185.575 60.1504 186.835 61.4239 186.835 62.9949Z" fill="black"></path><path d="M193.493 64.8371C193.493 66.034 193.228 68.3693 192.053 68.3693C190.877 68.3693 189.235 66.034 189.235 64.8371C189.235 63.6402 190.188 62.6699 191.364 62.6699C192.54 62.6699 193.493 63.6402 193.493 64.8371Z" fill="black"></path><path d="M187.568 72.3937C187.568 73.5906 187.303 75.9259 186.128 75.9259C184.952 75.9259 183.31 73.5906 183.31 72.3937C183.31 71.1968 184.263 70.2266 185.439 70.2266C186.615 70.2266 187.568 71.1968 187.568 72.3937Z" fill="black"></path><path d="M193.502 72.3937C193.502 73.5906 193.237 75.9259 192.061 75.9259C190.885 75.9259 189.244 73.5906 189.244 72.3937C189.244 71.1968 190.197 70.2266 191.373 70.2266C192.549 70.2266 193.502 71.1968 193.502 72.3937Z" fill="black"></path><path d="M199.427 72.3937C199.427 73.5906 199.162 75.9259 197.986 75.9259C196.81 75.9259 195.169 73.5906 195.169 72.3937C195.169 71.1968 196.122 70.2266 197.298 70.2266C198.474 70.2266 199.427 71.1968 199.427 72.3937Z" fill="black"></path><path d="M187.643 79.9503C187.643 81.1472 187.378 83.4822 186.203 83.4822C185.027 83.4822 183.385 81.1472 183.385 79.9503C183.385 78.7534 184.338 77.7832 185.514 77.7832C186.69 77.7832 187.643 78.7534 187.643 79.9503Z" fill="black"></path><path d="M202.81 82.1663C202.81 84.5868 202.273 89.3095 199.891 89.3095C197.51 89.3095 194.185 84.5868 194.185 82.1663C194.185 79.7457 196.115 77.7832 198.497 77.7832C200.879 77.7832 202.81 79.7457 202.81 82.1663Z" fill="black"></path><path d="M93.3097 171.885H104.951L126.16 171.116V77.8184H20.1573L16.7263 175.085L52.772 173.779" stroke="black"></path><path d="M96.9097 66.9242H131.495M96.9097 60.6084H118.651H96.9097Z" stroke="black" stroke-linecap="round"></path><path d="M20.1572 77.8184H126.16V97.1329H19.4719L20.1572 77.8184Z" fill="black"></path><path d="M28.499 92.4089C30.9903 92.4089 33.0099 90.1999 33.0099 87.475C33.0099 84.75 30.9903 82.541 28.499 82.541C26.0076 82.541 23.988 84.75 23.988 87.475C23.988 90.1999 26.0076 92.4089 28.499 92.4089Z" fill="white"></path><path d="M40.2275 92.4089C42.7188 92.4089 44.7384 90.1999 44.7384 87.475C44.7384 84.75 42.7188 82.541 40.2275 82.541C37.7362 82.541 35.7166 84.75 35.7166 87.475C35.7166 90.1999 37.7362 92.4089 40.2275 92.4089Z" fill="white"></path><path d="M51.9557 92.4089C54.4471 92.4089 56.4667 90.1999 56.4667 87.475C56.4667 84.75 54.4471 82.541 51.9557 82.541C49.4644 82.541 47.4448 84.75 47.4448 87.475C47.4448 90.1999 49.4644 92.4089 51.9557 92.4089Z" fill="white"></path><path d="M117.699 110.638L76.9597 111.848L79.953 42.3652H172.435V109.012L153.931 109.561" stroke="black"></path><path d="M172.435 42.3652H79.9597V50.4566H172.435V42.3652Z" fill="black"></path><path d="M148.074 145.353L107.335 146.255L110.328 94.4248H202.81V144.14L184.306 144.55" stroke="black"></path><path d="M114.492 142.059H144.667M114.492 138.693H133.46H114.492Z" stroke="black" stroke-linecap="round"></path><path d="M202.81 94.4248H110.335V104.043H202.81V94.4248Z" fill="black"></path><path d="M93.9098 176.941C93.9098 183.779 91.2376 188.545 87.1718 191.615C83.0881 194.699 77.5575 196.101 71.8221 196.101C66.0878 196.101 61.3479 194.7 58.0443 191.644C54.7484 188.595 52.8096 183.83 52.8096 176.941C52.8096 163.165 62.0778 152.133 73.3596 152.133C84.6413 152.133 93.9098 163.165 93.9098 176.941Z" stroke="black"></path><path d="M93.7192 170.595L103.789 173.053C107.822 180.75 105.444 185.454 105.085 192.36C97.7325 191.886 79.3477 190.502 77.1937 188.372C75.009 186.209 77.4337 185.406 78.7822 185.367L75.3825 184.413C74.4495 184.196 72.5522 183.416 72.4276 182.034C72.3031 180.652 74.8702 180.602 76.1692 180.75C69.4971 179.477 71.4629 176.232 73.1422 176.14C73.9623 176.096 77.2957 176.518 78.8527 176.775C78.27 176.608 76.9372 176.075 76.2757 175.285C75.4485 174.297 75.8632 173.36 77.1165 172.85C78.1837 172.415 86.457 173.063 88.9552 173.308C90.954 173.505 92.9902 171.58 93.7192 170.595Z" fill="#F98012"></path><path d="M79.2314 176.771L88.1242 177.66" stroke="black" stroke-linecap="round"></path><path d="M77.2268 181.041L86.1203 181.93" stroke="black" stroke-linecap="round"></path><path d="M79.644 185.909L88.5375 186.798" stroke="black" stroke-linecap="round"></path><path d="M76.1589 16.666C78.5484 19.426 80.3814 22.6381 81.5514 26.1189C82.7214 29.5996 83.2066 33.281 82.9786 36.9525C82.7514 40.6242 81.8154 44.2141 80.2246 47.5176C78.6339 50.8211 76.4191 53.7733 73.7074 56.2056C70.9956 58.638 67.8396 60.503 64.4196 61.6939C60.9996 62.8849 57.3826 63.3787 53.7752 63.147C50.1677 62.9153 46.6405 61.9628 43.3947 60.3436C40.1489 58.7245 37.2483 56.4706 34.8584 53.7106L47.6791 42.211C48.5852 43.2575 49.6849 44.1121 50.9156 44.726C52.1462 45.3399 53.4836 45.7011 54.8514 45.7889C56.2192 45.8767 57.5905 45.6896 58.8872 45.238C60.1839 44.7864 61.3805 44.0793 62.4087 43.157C63.4369 42.2348 64.2766 41.1155 64.8797 39.863C65.4829 38.6105 65.8378 37.2493 65.9241 35.8572C66.0104 34.4651 65.8264 33.0694 65.3827 31.7496C64.939 30.4298 64.2443 29.212 63.3382 28.1655L76.1589 16.666Z" stroke="black"></path><path d="M81.3473 42.9752L88.7723 65.2264L74.1096 69.6919L68.4846 59.8831C74.1471 56.3336 76.9598 52.5042 78.2348 50.2651C77.3971 46.881 76.2848 43.6622 77.0348 40.6089C77.8261 37.3866 80.0723 39.5784 81.3473 42.9752Z" fill="#F98012"></path><path d="M74.3346 67.6692C72.0546 69.2264 73.3846 70.8879 74.3346 71.524C73.7721 71.524 72.4521 72.0202 71.6721 74.0049C70.6972 76.4857 72.6471 77.8979 72.6471 84.4625C72.6471 91.0272 71.6721 102.973 72.6471 112.057C73.6221 121.141 78.5349 125.95 84.5724 131.331C90.6099 136.713 95.2224 146.979 99.3849 151.979C102.715 155.979 111.772 159.829 115.885 161.254C115.885 164.032 111.46 169.867 109.247 172.437C107.159 171.864 102.715 171.528 101.635 174.765C100.285 178.81 102.985 180.375 102.985 183.467C102.985 186.558 101.447 190.604 102.985 192.131C104.215 193.352 107.022 193.556 108.272 193.505C108.872 194.604 111.447 195.871 112.66 196.367C112.66 201.487 122.305 209.086 126.685 210.489C132.76 212.435 167.635 222.435 181.66 208.542C195.685 194.65 191.522 155.262 188.485 138.087C186.055 124.347 178.372 113.965 174.835 110.492C174.209 109.462 172.427 107.057 170.297 105.683C158.747 97.9735 134.447 106.637 132.572 107.401C130.697 108.164 132.572 110.492 130.847 110.492C129.467 110.492 127.497 112.426 126.685 113.393C124.847 113.393 120.115 113.126 115.885 112.057C110.597 110.721 102.985 104.118 99.3849 97.9735C95.7849 91.8287 94.2474 76.5239 92.9349 71.524C91.6224 66.5242 89.7099 67.6692 89.1474 64.7685C88.5849 61.8679 77.1849 65.7227 74.3346 67.6692Z" fill="#69E0FF"></path><path d="M126.16 115.148C125.56 117.425 124.397 124.499 124.547 134.575C124.697 144.651 121.085 154.346 119.26 157.933" stroke="black" stroke-linecap="round"></path><path d="M120.497 196.062C123.16 195.146 131.635 195.337 139.585 196.062C147.535 196.788 160.435 191.024 162.722 188.162C165.01 185.299 188.672 157.247 186.572 138.889C184.736 122.831 177.053 115.399 162.722 122.897C159.597 124.5 152.537 130.912 149.297 143.736C145.247 159.766 145.21 169.689 138.497 170.376C131.785 171.063 121.96 167.666 117.197 169.995C112.322 171.788 110.612 173.796 109.322 180.605C108.032 187.414 107.609 192.653 108.685 194.192" stroke="black" stroke-linecap="round"></path><path d="M102.76 189.492C104.197 189.861 107.267 190.606 108.047 190.637M102.085 175.79C103.634 175.459 107.14 174.943 108.76 175.523L102.085 175.79ZM102.76 179.569L108.347 180.752L102.76 179.569ZM103.81 184.95L107.747 184.759L103.81 184.95Z" stroke="black" stroke-linecap="round"></path><path d="M75.861 67.8339C75.8115 68.7287 75.7365 70.6315 75.8317 71.0837M85.6343 64.7578C86.106 65.5797 87.0053 67.4835 86.8313 68.5242L85.6343 64.7578ZM83.013 65.8858L83.001 69.3148L83.013 65.8858ZM79.2922 67.543L80.022 69.7582L79.2922 67.543Z" stroke="black" stroke-linecap="round"></path><path d="M172.435 112.058C168.047 113.8 158.687 117.882 156.347 120.263C153.422 123.24 145.847 127.019 144.685 126.408M133.135 112.974C134.347 115.2 137.155 120.111 138.685 121.943" stroke="black" stroke-linecap="round"></path><path d="M166.21 109.538C165.46 109.869 163.682 110.744 162.572 111.599C161.185 112.668 159.797 114.309 158.86 115.149" stroke="black" stroke-linecap="round"></path><path d="M136.06 108.928C136.22 109.112 136.601 109.6 136.839 110.077C137.136 110.673 137.434 111.589 137.635 112.057" stroke="black" stroke-linecap="round"></path><path d="M158.297 109.538C156.897 111.956 153.362 117.454 150.422 120.11C147.482 122.767 146.022 123.482 145.66 123.507" stroke="black" stroke-linecap="round"></path><path d="M165.4 92.5237C165.4 101.044 158.613 107.951 150.242 107.951C147.394 107.951 143.623 108.525 141.347 107.134C136.933 104.437 135.085 98.1448 135.085 92.5237C135.085 84.0033 141.871 77.0967 150.242 77.0967C158.613 77.0967 165.4 84.0033 165.4 92.5237Z" fill="#F98012"></path><path d="M152.372 75.303C144.001 75.303 131.447 67.4699 131.447 75.99C131.447 79.2227 132.947 84.6026 135.267 90.0353C135.619 88.6613 136.48 85.7683 137.11 85.1881C137.897 84.463 141.872 90.1879 146.072 86.6766C150.272 83.1653 156.947 84.3485 156.385 86.1423C156.007 87.3445 153.197 97.3213 160.135 104.213C163.358 101.384 166.435 96.5778 166.435 91.9054C166.435 82.4325 165.4 75.303 152.372 75.303Z" fill="black"></path><path d="M157.466 109.28L157.182 104.715L143.16 104.079L142.365 108.355C142.365 113.851 141.947 122.433 144.385 122.668C148.272 123.042 156.559 110.984 157.466 109.28Z" fill="#F98012"></path><path d="M155.994 98.7346C157.519 99.2444 159.247 98.1305 159.856 96.2466C160.464 94.3627 159.721 92.4222 158.197 91.9124C156.673 91.4026 154.944 92.5164 154.336 94.4003C153.727 96.2842 154.47 98.2247 155.994 98.7346Z" fill="#F98012"></path><path d="M155.109 95.3235C155.62 94.4571 157.039 93.4167 158.344 93.648" stroke="black" stroke-linecap="round"></path><path d="M157.512 93.7793C157.666 94.0213 157.99 94.8151 158.04 95.3571" stroke="black" stroke-linecap="round"></path><path d="M143.122 94.8242L140.185 99.076L144.121 99.6966" stroke="black" stroke-linecap="round"></path><path d="M142.36 102.483C142.871 102.502 144.154 102.414 145.198 101.905" stroke="black" stroke-linecap="round"></path><path d="M146.26 89.9994C146.771 89.9803 148.054 90.0689 149.098 90.5772" stroke="black" stroke-linecap="round"></path><path d="M139.723 90.3813C139.212 90.3622 137.93 90.4507 136.885 90.9591" stroke="black" stroke-linecap="round"></path><path d="M146.56 108.135C147.809 108.367 150.023 108.54 151.726 107.096" stroke="black" stroke-linecap="round"></path><path d="M139.212 94.7702C139.745 94.7702 140.177 94.3304 140.177 93.7879C140.177 93.2454 139.745 92.8057 139.212 92.8057C138.679 92.8057 138.247 93.2454 138.247 93.7879C138.247 94.3304 138.679 94.7702 139.212 94.7702Z" fill="black"></path><path d="M147.225 94.6198C147.758 94.6198 148.19 94.18 148.19 93.6375C148.19 93.095 147.758 92.6553 147.225 92.6553C146.692 92.6553 146.26 93.095 146.26 93.6375C146.26 94.18 146.692 94.6198 147.225 94.6198Z" fill="black"></path><path d="M147.658 99.4838C148.72 99.4838 149.581 98.6076 149.581 97.5266C149.581 96.4456 148.72 95.5693 147.658 95.5693C146.596 95.5693 145.735 96.4456 145.735 97.5266C145.735 98.6076 146.596 99.4838 147.658 99.4838Z" fill="#F98012"></path><path d="M137.833 99.102C138.895 99.102 139.756 98.2257 139.756 97.1448C139.756 96.0638 138.895 95.1875 137.833 95.1875C136.771 95.1875 135.91 96.0638 135.91 97.1448C135.91 98.2257 136.771 99.102 137.833 99.102Z" fill="#F98012"></path></svg> 