<?xml version="1.0" encoding="UTF-8"?> <svg xmlns="http://www.w3.org/2000/svg" width="225" height="229" viewBox="0 0 225 229" fill="none"><path d="M184.881 24.6187C185.988 18.3406 191.064 6.73052 192.592 10.3383C194.504 14.8479 193.766 27.7577 191.184 28.5092C188.602 29.2609 192.358 10.4266 195.577 11.7531C198.151 12.8141 196.65 18.3258 195.577 20.9491C195.956 17.4121 196.445 12.4604 201.712 9.14453" stroke="#FFDC4D" stroke-linecap="round"></path><path d="M51.091 175.542C51.091 177.881 50.5258 182.445 48.0166 182.445C45.5078 182.445 42.0056 177.881 42.0056 175.542C42.0056 173.203 44.0393 171.306 46.5481 171.306C49.0569 171.306 51.091 173.203 51.091 175.542Z" fill="black"></path><path d="M36.7458 178.188C36.7458 181.99 35.9782 189.407 32.5714 189.407C29.1648 189.407 24.4092 181.99 24.4092 178.188C24.4092 174.387 27.1709 171.306 30.5775 171.306C33.9841 171.306 36.7458 174.387 36.7458 178.188Z" fill="black"></path><path d="M208.244 190.832C202.487 176.851 191.486 180.889 186.705 184.656C188.231 187.884 191.995 194.358 197.056 195.15C202.116 195.943 206.807 192.662 208.244 190.832Z" fill="#D1EAFF"></path><path d="M195.412 193.181C197.882 194.82 201.071 193.905 202.534 191.139C203.998 188.372 203.181 184.8 200.711 183.162C198.24 181.523 195.051 182.437 193.588 185.204C192.125 187.971 192.942 191.542 195.412 193.181Z" fill="black"></path><path d="M187.74 183.034L185.733 179.21" stroke="black" stroke-linecap="round"></path><path d="M191.691 180.978L190.344 176.808" stroke="black" stroke-linecap="round"></path><path d="M196.8 180.31L196.479 175.89" stroke="black" stroke-linecap="round"></path><path d="M201.833 181.591L203.481 177.559" stroke="black" stroke-linecap="round"></path><path d="M206.524 185.668L209.438 182.666" stroke="black" stroke-linecap="round"></path><path d="M208.812 189.756L212.372 187.813" stroke="black" stroke-linecap="round"></path><path d="M147.115 11.0392C143.105 1.30059 135.442 4.11379 132.112 6.73774C133.175 8.98649 135.797 13.4957 139.322 14.0476C142.846 14.5995 146.114 12.314 147.115 11.0392Z" fill="#D1EAFF"></path><path d="M138.176 12.6759C139.897 13.8174 142.118 13.1804 143.137 11.2531C144.156 9.32588 143.588 6.83818 141.867 5.69671C140.146 4.55523 137.925 5.19224 136.906 7.1195C135.887 9.04676 136.455 11.5345 138.176 12.6759Z" fill="black"></path><path d="M132.832 5.60791L131.435 2.94434" stroke="black" stroke-linecap="round"></path><path d="M135.584 4.17572L134.646 1.27051" stroke="black" stroke-linecap="round"></path><path d="M139.143 3.71089L138.919 0.631836" stroke="black" stroke-linecap="round"></path><path d="M142.649 4.60189L143.796 1.79297" stroke="black" stroke-linecap="round"></path><path d="M145.916 7.44341L147.946 5.35156" stroke="black" stroke-linecap="round"></path><path d="M147.511 10.291L149.989 8.9375" stroke="black" stroke-linecap="round"></path><path d="M12.352 7.91602L21.5513 13.4837V24.6192L12.352 30.187L3.15259 24.6192V13.4837L12.352 7.91602Z" fill="#D1EAFF"></path><path d="M0.758545 12.0704L12.3594 5.05371L23.9602 12.0704V26.0311L12.3594 33.0478L0.758545 26.0311V12.0704Z" stroke="black"></path><path d="M8.12744 16.5255L12.352 13.9648L16.5766 16.5255V21.5767L12.352 24.1374L8.12744 21.5767V16.5255Z" stroke="black"></path><path d="M12.3169 12.4689V8.87891" stroke="black" stroke-linecap="round"></path><path d="M12.3872 29.3224V25.7324" stroke="black" stroke-linecap="round"></path><path d="M3.70605 24.3141L6.84309 22.2754" stroke="black" stroke-linecap="round"></path><path d="M17.6809 15.8044L20.818 13.7656" stroke="black" stroke-linecap="round"></path><path d="M6.84285 15.8044L3.70581 13.7656" stroke="black" stroke-linecap="round"></path><path d="M21.03 24.5144L17.8928 22.4756" stroke="black" stroke-linecap="round"></path><path d="M143.666 49.6178L189.996 38.4912L191.6 46.8695L145.48 57.8779L143.666 49.6178Z" fill="black"></path><path d="M116.695 93.3317C132.698 93.3317 145.672 78.8016 145.672 60.8778C145.672 42.9539 132.698 28.4238 116.695 28.4238C100.692 28.4238 87.7183 42.9539 87.7183 60.8778C87.7183 78.8016 100.692 93.3317 116.695 93.3317Z" stroke="black"></path><path d="M116.695 89.154C130.638 89.154 141.942 76.4941 141.942 60.8773C141.942 51.7519 138.082 43.6361 132.092 38.4658L116.695 89.154Z" fill="#D1EAFF"></path><path d="M107.897 34.3652C98.2903 38.3653 91.4478 48.7263 91.4478 60.8775C91.4478 65.0614 92.2587 69.033 93.7152 72.6059L107.897 34.3652Z" fill="#D1EAFF"></path><path d="M100.055 82.1436L116.695 32.6006C121.274 32.6006 125.568 33.9658 129.271 36.3526L112.296 88.7262C107.656 87.8131 103.452 85.4808 100.055 82.1436Z" fill="#D1EAFF"></path><path d="M71.5085 36.6318L83.9723 44.8717V61.3517L71.5085 69.5916L59.0437 61.3517V44.8717L71.5085 36.6318Z" fill="#D1EAFF"></path><path d="M57.4639 43.8125L71.5085 34.5254L85.5521 43.8125V62.4119L71.5085 71.699L57.4639 62.4119V43.8125Z" stroke="black"></path><path d="M65.5801 49.1736L71.5083 45.249L77.4356 49.1736V57.0492L71.5083 60.9738L65.5801 57.0492V49.1736Z" stroke="black"></path><path d="M71.4607 43.3715V38.0586" stroke="black" stroke-linecap="round"></path><path d="M71.5562 68.3129V63" stroke="black" stroke-linecap="round"></path><path d="M59.7935 60.901L64.0434 57.8838" stroke="black" stroke-linecap="round"></path><path d="M78.7288 48.3073L82.9787 45.29" stroke="black" stroke-linecap="round"></path><path d="M64.0434 48.3073L59.7935 45.29" stroke="black" stroke-linecap="round"></path><path d="M83.2655 61.196L79.0156 58.1787" stroke="black" stroke-linecap="round"></path><path d="M51.5691 79.8357L58.2156 92.903L40.5232 101.793C35.9807 90.2073 27.0294 65.9973 27.565 61.8414C28.1005 57.6856 31.0396 54.683 32.2988 54.7187C32.2988 53.8083 33.0639 51.1191 34.6418 49.8988C36.6501 48.3458 39.0409 48.2922 40.0451 48.8813C42.149 41.8657 48.5564 44.7934 49.943 46.0965C58.2156 44.0079 62.9494 47.9173 64.097 49.8453C65.2446 51.7732 62.3756 53.6476 61.8018 53.3263C61.228 53.005 57.1636 51.8803 54.6772 52.6301C50.6128 53.9154 50.8997 59.0031 52.0473 61.8414C53.1948 64.6798 55.5378 63.1267 59.3153 61.8414C63.0928 60.5561 66.6312 58.6278 66.6312 61.8414C66.6312 63.6623 62.6625 70.4397 56.1116 72.6059C52.0951 73.934 50.9312 78.6039 51.5691 79.8357Z" fill="#F98012"></path><path d="M181.677 35.546L199.083 73.8372L179.717 84.7623C177.565 79.639 172.726 68.8353 170.584 66.6074C167.906 63.8226 165.707 62.9122 163.22 61.6804C160.734 60.4487 152.557 59.7525 152.892 57.9852C153.227 56.2179 154.948 55.4681 156.956 54.5577C158.563 53.8293 162.248 54.2542 163.89 54.5577L160.734 46.8459C160.319 45.3107 159.739 42.0367 160.734 41.2227C162.599 39.6965 163.761 40.8836 164.655 41.2227C164.431 40.8121 164.33 39.6589 165.707 38.3307C167.084 37.0026 168.767 37.7774 169.436 38.3307C169.245 37.8666 169.534 35.8952 171.062 35.064C172.736 34.1536 174.154 35.0818 175.079 35.546C174.855 35.1711 174.811 33.5538 176.8 32.4399C178.789 31.326 180.912 34.2428 181.677 35.546Z" fill="#F98012"></path><path d="M51.4256 45.3467C49.5605 45.6145 46.7871 47.8637 46.7871 51.5054" stroke="black" stroke-linecap="round"></path><path d="M175.509 36.4023L177.039 39.7763" stroke="black" stroke-linecap="round"></path><path d="M169.867 39.7764L171.397 43.1503" stroke="black" stroke-linecap="round"></path><path d="M165.085 42.5615L166.615 45.9354" stroke="black" stroke-linecap="round"></path><path d="M40.8444 46.5244C40.5249 46.7922 39.0185 49.2519 38.709 52.3382" stroke="black" stroke-linecap="round"></path><path d="M33.6723 51.666C33.3528 51.9338 31.8464 54.3935 31.5369 57.4798" stroke="black" stroke-linecap="round"></path><path d="M41.0791 103.001C35.1073 105.773 38.5908 117.974 41.0791 123.728V133.21L47.0605 146.095L52.994 158.373C56.1359 161.635 63.5596 167.709 68.115 165.91C73.8093 163.661 91.6579 157.097 94.864 158.373C98.07 159.65 95.1032 164.33 94.864 168.159C94.6725 171.223 98.2614 183.254 100.08 188.886C114.962 202.076 149.127 192.654 151.855 190.77C154.582 188.886 170.182 191.439 173.149 188.886C176.116 186.333 171.905 158.981 173.149 155.517C174.393 152.052 178.604 151.444 181.81 148.952C185.016 146.46 181.81 143.907 184.537 142.631C186.719 141.61 197.186 140.95 202.147 140.747C208.016 137.181 220.541 128.785 223.68 123.728C227.604 117.406 221.718 103.001 219.756 103.001C217.794 103.001 212.052 82.8215 210.09 81.6059C208.128 80.3902 205.353 71.82 203.869 69.3279C202.386 66.8359 194.203 74.6767 192.002 76.2571C189.801 77.8374 175.876 85.0705 178.604 86.59C180.786 87.8056 181.65 93.4181 181.81 96.0719C181.236 96.8012 180.432 98.6369 181.81 100.144C183.188 101.652 186.181 104.986 187.504 106.466H178.604C172.24 104.359 158.277 100.716 153.338 103.001C148.4 105.286 140.211 102.049 136.734 100.144C128.197 110.988 120.847 106.566 117.88 103.001C117.211 104.46 114.56 107.195 112.186 106.466C109.219 105.554 100.798 107.073 91.6579 112.118C82.5183 117.163 81.9919 114.914 78.0203 114.914C74.0486 114.914 74.5271 120.628 73.8093 117.771C73.0916 114.914 70.8426 112.422 69.8377 109.565C68.8328 106.709 67.1102 103.001 65.3875 103.001C63.6649 103.001 62.8992 95.768 60.6502 92.9113C58.4012 90.0546 48.5439 99.5364 41.0791 103.001Z" fill="#194866"></path><path d="M148.78 107.307C147.862 106.75 147.25 105.326 147.058 104.683C147.712 104.772 149.114 104.683 150.453 104.683C152.127 104.683 153.37 104.041 154.087 103.666C154.661 103.366 159.713 103.54 162.168 103.666C161.849 104.576 160.992 106.879 160.112 108.807C159.012 111.217 155.283 113.573 153.37 113.038C151.457 112.502 149.927 108.004 148.78 107.307Z" fill="#69E0FF"></path><path d="M117.065 108.465C119.756 116.679 121.141 132.236 113.778 135.263C109.633 136.966 106.689 130.348 101.115 125.94C96.786 122.516 91.5779 123.017 90.4007 119.426C89.3344 116.173 89.2923 114.252 90.087 112.931C93.1692 111.431 95.4634 110.294 99.9113 108.465C107.274 105.439 115.691 106.29 117.065 108.465Z" fill="#69E0FF"></path><path d="M62.0888 158.933C56.7448 152.502 57.3521 142.931 63.0709 136.97C65.5707 134.364 70.0138 137.45 75.2574 136.591C82.0081 135.485 87.309 131.074 90.3167 134.693C93.5404 138.574 90.113 144.319 87.1923 150.043C86.4961 151.408 85.9759 152.814 85.4872 154.167C80.4445 155.755 70.2845 158.933 69.7872 158.933C69.1656 158.933 66.5357 160.7 63.332 159.308L62.0888 158.933Z" fill="#69E0FF"></path><path d="M165.821 161.909C165.99 157.864 163.876 153.944 162.927 149.062C161.483 141.634 160.39 133.722 155.662 133.475C147.632 133.055 148.605 141.934 144.428 149.062C141.184 154.598 137.635 155.97 137.45 160.429C137.026 170.628 143.033 179.227 150.868 179.636C158.703 180.044 165.398 172.108 165.821 161.909Z" fill="#69E0FF"></path><path d="M205.35 120.068C204.096 118.355 201.952 117.627 199.969 116.032C196.952 113.605 193.918 110.837 191.915 112.677C188.513 115.803 184.964 117.154 185.598 121.767C186.091 125.35 191.946 129.223 193.33 131.112C196.495 135.433 201.752 136.463 205.071 133.414C208.391 130.364 208.516 124.389 205.35 120.068Z" fill="#69E0FF"></path><path d="M203.386 94.0794C205.375 98.3637 211.993 96.7571 215.053 95.4183L214.145 93.8116C213.252 91.2946 211.238 86.1212 210.319 85.5642C209.401 85.0073 208.024 82.833 207.45 81.8154C207.211 82.4402 206.685 83.9362 206.494 84.9216C206.255 86.1533 200.9 88.7239 203.386 94.0794Z" fill="#69E0FF"></path><path d="M49.7996 124.606C45.5153 125.848 41.5752 122.268 40.1407 120.322C38.9932 118.265 38.0688 113.11 37.7499 110.789C37.7021 108.968 38.1133 105.144 40.1407 104.416C42.1681 103.688 47.4248 100.756 49.7996 99.3818C52.9558 99.7567 51.6169 108.111 50.8041 110.789C49.9909 113.467 55.1553 123.053 49.7996 124.606Z" fill="#69E0FF"></path><path d="M172.153 186.846C172.949 184.561 174.304 179.68 173.348 178.438M102.723 188.613C102.308 186.364 99.0031 181.458 99.9977 177.474L102.723 188.613ZM109.752 190.916C109.337 187.274 108.758 179.68 109.752 178.438V190.916ZM117.833 192.629C117.833 187.774 117.833 178.405 117.833 179.776V192.629ZM128.114 192.629C128.512 190.951 129.07 186.524 128.114 182.24V192.629ZM138.586 190.916C139.079 189.826 140.106 186.996 140.259 184.382L138.586 190.916ZM150.54 179.776C150.651 183.49 150.568 190.916 149.344 190.916L150.54 179.776ZM158.429 188.613C159.912 187.006 162.915 183.257 163.068 181.115L158.429 188.613ZM165.65 186.846C167.068 184.936 169.905 180.848 169.905 179.776L165.65 186.846Z" stroke="black" stroke-linecap="round"></path><path d="M56.3076 135.548C55.8276 134.573 55.0195 132.337 55.6286 131.19C56.3899 129.756 68.9714 116.236 73.1343 115.984" stroke="black" stroke-linecap="round"></path><path d="M188.228 104.095C187.383 103.345 195.434 99.9158 200.326 103.506C207.403 108.701 211.706 110.307 212.71 112.824" stroke="black" stroke-linecap="round"></path><path d="M56.4941 94.0817C57.4657 93.6533 59.7838 93.996 61.2757 98.7945M40.7144 102.49C40.5231 103.882 40.2554 106.86 40.7144 107.631V102.49ZM44.2528 101.151L44.5875 105.542L44.2528 101.151ZM47.6956 99.4371C48.2056 100.401 49.2735 102.49 49.4648 103.132L47.6956 99.4371ZM51.9515 96.7594C52.621 97.5627 54.1606 99.5657 54.964 101.151L51.9515 96.7594Z" stroke="black" stroke-linecap="round"></path><path d="M116.456 106.345C117.858 107.237 121.773 108.947 126.211 108.648C130.648 108.348 132.841 106.987 133.383 106.345" stroke="black" stroke-linecap="round"></path><path d="M122.959 110.469C123.899 110.683 126.277 110.983 128.266 110.469" stroke="black" stroke-linecap="round"></path><path d="M185.192 83.4531C184.313 84.0863 183.207 86.3927 185.812 90.5531M200.506 74.0273C201.627 74.6673 203.94 76.1643 204.231 77.0322L200.506 74.0273ZM197.467 76.4604L200.453 79.3313L197.467 76.4604ZM194.214 78.5875C194.614 79.6145 195.503 81.8057 195.857 82.3552L194.214 78.5875ZM189.786 80.8899C189.978 81.9679 190.528 84.5377 191.207 86.1943L189.786 80.8899Z" stroke="black" stroke-linecap="round"></path><path d="M103.322 79.2698C103.322 80.9936 102.907 82.525 102.267 83.6064C101.623 84.6927 100.799 85.2623 99.9669 85.2623C99.1349 85.2623 98.3105 84.6927 97.6669 83.6064C97.0262 82.525 96.6121 80.9936 96.6121 79.2698C96.6121 77.5461 97.0262 76.0148 97.6669 74.9333C98.3105 73.8471 99.1349 73.2773 99.9669 73.2773C100.799 73.2773 101.623 73.8471 102.267 74.9333C102.907 76.0148 103.322 77.5461 103.322 79.2698Z" stroke="black"></path><path d="M111.818 96.331L114.734 104.686C122.976 108.93 133.548 108.926 139.168 99.4907C139.168 99.4907 131.749 92.4944 127.966 88.7695C129.484 81.9015 129.388 68.0259 116.866 67.4672C101.214 66.7688 97.9087 83.7407 101.152 91.4235C103.745 97.5703 107.849 96.813 111.818 96.331Z" fill="#F98012"></path><path d="M117.739 89.1172C120.357 89.1172 122.479 86.7407 122.479 83.8091C122.479 80.8775 120.357 78.501 117.739 78.501C115.122 78.501 113 80.8775 113 83.8091C113 86.7407 115.122 89.1172 117.739 89.1172Z" fill="#F98012"></path><path d="M114.372 83.2513C115.009 82.9253 116.399 82.2734 116.866 82.2734" stroke="black" stroke-linecap="round"></path><path d="M116.312 83.0039C116.562 83.5159 117.07 84.6376 117.101 85.0283" stroke="black" stroke-linecap="round"></path><path d="M96.8484 77.9424L114.434 78.571" stroke="black"></path><path d="M101.955 84.5937C102.494 84.7266 103.128 83.8267 103.373 82.5836C103.618 81.3406 103.38 80.2251 102.842 80.0922C102.304 79.9593 101.669 80.8593 101.424 82.1023C101.18 83.3454 101.417 84.4608 101.955 84.5937Z" fill="#F98012"></path><path d="M102.399 70.19L112.127 78.0126L113.249 82.6223C113.416 81.6677 114.322 79.8006 116.617 79.9682C119.486 80.1777 120.297 85.2065 118.051 87.0923C116.255 88.6009 114.434 87.7208 113.749 87.0923L116.617 103.024L150.262 97.8296C150.262 97.8296 147.81 88.992 141.374 75.3586C134.939 61.725 126.262 61.5295 122.729 63.1359C113.749 58.0512 105.433 65.7201 102.399 70.19Z" fill="black"></path><path d="M141.911 54.7122C143.912 58.4059 142.836 63.233 139.508 65.4936C136.181 67.7542 123.227 68.5136 123.227 68.5136C123.227 68.5136 128.936 54.3778 132.264 52.1171C135.591 49.8565 139.911 51.0183 141.911 54.7122Z" fill="black"></path></svg> 