<?xml version="1.0" encoding="UTF-8"?> <svg xmlns="http://www.w3.org/2000/svg" width="225" height="229" viewBox="0 0 225 229" fill="none"><path d="M29.8607 28.3965L32.1807 34.4157L40.2868 30.4193L35.0737 38.1316L41.7846 41.7878L34.0412 42.7651L34.5007 49.2194L29.8607 44.8272L23.4516 50.8385L25.6801 42.7651L19.4346 41.7878L24.6476 38.1316L22.4828 32.9765L27.5406 34.4157L29.8607 28.3965Z" fill="black"></path><path d="M57.3846 69.9973H31.5577C31.317 69.4345 31.2653 68.1381 32.9848 67.4544C34.7042 66.7708 36.1441 67.7393 36.6491 68.309C36.8136 66.4957 37.8753 62.8022 40.8068 62.5354C43.7383 62.2686 44.6591 64.9115 44.7531 66.2664C47.445 61.8475 49.7974 65.2172 50.6372 67.4544C53.4418 66.3039 56.3041 68.6703 57.3846 69.9973Z" fill="#D1EAFF"></path><path d="M85.2847 31.0674H116.336C116.626 30.4414 116.688 28.9995 114.621 28.2391C112.553 27.4786 110.822 28.5559 110.215 29.1896C110.017 27.1727 108.741 23.0647 105.216 22.768C101.692 22.4712 100.585 25.4108 100.471 26.9177C97.2352 22.0029 94.4069 25.7508 93.3967 28.2391C90.0247 26.9593 86.5837 29.5914 85.2847 31.0674Z" fill="#D1EAFF"></path><path d="M111.398 7.4043L112.752 10.9258L117.485 8.58769L114.441 13.0997L118.36 15.2387L113.838 15.8104L114.107 19.5864L111.398 17.0169L107.655 20.5336L108.956 15.8104L105.31 15.2387L108.353 13.0997L107.09 10.0837L110.042 10.9258L111.398 7.4043Z" fill="black"></path><path d="M122.809 68.624L123.431 70.0777L125.608 69.1126L124.208 70.975L126.01 71.858L123.931 72.094L124.055 73.6527L122.809 72.592L121.088 74.0437L121.686 72.094L120.01 71.858L121.409 70.975L120.828 69.7301L122.186 70.0777L122.809 68.624Z" fill="black"></path><path d="M79.7348 71.219C91.9127 71.219 101.785 61.1714 101.785 48.777C101.785 36.3826 91.9127 26.335 79.7348 26.335C67.5569 26.335 57.6848 36.3826 57.6848 48.777C57.6848 61.1714 67.5569 71.219 79.7348 71.219Z" fill="#F98012"></path><path d="M68.8221 53.968C68.2821 50.7315 61.1721 49.159 57.6846 48.7773C57.6846 60.1493 65.9951 69.5457 76.7723 71.0186C76.9598 70.914 77.2748 70.3873 77.6348 69.5018C78.0848 68.395 77.2223 66.563 74.0346 66.792C72.3887 66.9102 69.4971 58.0137 68.8221 53.968Z" fill="black"></path><path d="M91.5096 35.5331C92.1396 33.8843 89.1719 29.6965 87.6096 27.8086C92.4801 29.7046 96.5211 33.308 99.0261 37.8995C98.5829 38.0649 97.5021 38.4414 96.7221 38.6246C95.7471 38.8536 90.7221 37.5941 91.5096 35.5331Z" fill="black"></path><path d="M86.7848 70.0356C86.7848 69.1577 78.3473 63.4709 82.5473 59.7306C88.8706 54.0994 79.8376 46.2193 80.1098 44.1205C81.0848 36.6015 96.0473 45.7616 101.41 44.7311" stroke="black"></path><path d="M59.522 39.8076C61.6595 40.7618 69.197 39.2275 70.547 36.1436C72.2345 32.2888 69.8345 31.2965 72.4595 30.4186C74.5594 29.7164 75.0472 27.4416 74.9344 26.8691" stroke="black"></path><path d="M193.285 25.5154C193.285 27.0863 192.934 30.1516 191.381 30.1516C189.828 30.1516 187.66 27.0863 187.66 25.5154C187.66 23.9444 188.919 22.6709 190.472 22.6709C192.025 22.6709 193.285 23.9444 193.285 25.5154Z" fill="black"></path><path d="M199.943 27.3576C199.943 28.5544 199.678 30.8898 198.503 30.8898C197.327 30.8898 195.685 28.5544 195.685 27.3576C195.685 26.1607 196.638 25.1904 197.814 25.1904C198.99 25.1904 199.943 26.1607 199.943 27.3576Z" fill="black"></path><path d="M194.018 34.9143C194.018 36.1111 193.753 38.4464 192.578 38.4464C191.402 38.4464 189.76 36.1111 189.76 34.9143C189.76 33.7173 190.713 32.7471 191.889 32.7471C193.065 32.7471 194.018 33.7173 194.018 34.9143Z" fill="black"></path><path d="M199.952 34.9143C199.952 36.1111 199.688 38.4464 198.512 38.4464C197.336 38.4464 195.694 36.1111 195.694 34.9143C195.694 33.7173 196.647 32.7471 197.823 32.7471C198.999 32.7471 199.952 33.7173 199.952 34.9143Z" fill="black"></path><path d="M205.877 34.9143C205.877 36.1111 205.612 38.4464 204.436 38.4464C203.26 38.4464 201.619 36.1111 201.619 34.9143C201.619 33.7173 202.572 32.7471 203.748 32.7471C204.924 32.7471 205.877 33.7173 205.877 34.9143Z" fill="black"></path><path d="M194.093 42.4709C194.093 43.6677 193.828 46.0031 192.652 46.0031C191.476 46.0031 189.835 43.6677 189.835 42.4709C189.835 41.274 190.788 40.3037 191.964 40.3037C193.14 40.3037 194.093 41.274 194.093 42.4709Z" fill="black"></path><path d="M209.26 44.6865C209.26 47.1071 208.723 51.83 206.341 51.83C203.96 51.83 200.635 47.1071 200.635 44.6865C200.635 42.2659 202.565 40.3037 204.947 40.3037C207.329 40.3037 209.26 42.2659 209.26 44.6865Z" fill="black"></path><path d="M26.7681 151.017C26.7681 152.214 26.5031 154.549 25.3271 154.549C24.1511 154.549 22.5095 152.214 22.5095 151.017C22.5095 149.82 23.4628 148.85 24.6388 148.85C25.8148 148.85 26.7681 149.82 26.7681 151.017Z" fill="black"></path><path d="M32.7027 151.017C32.7027 152.214 32.4377 154.549 31.2617 154.549C30.0857 154.549 28.4441 152.214 28.4441 151.017C28.4441 149.82 29.3974 148.85 30.5733 148.85C31.7493 148.85 32.7027 149.82 32.7027 151.017Z" fill="black"></path><path d="M38.6277 151.017C38.6277 152.214 38.3627 154.549 37.1867 154.549C36.0107 154.549 34.3691 152.214 34.3691 151.017C34.3691 149.82 35.3225 148.85 36.4984 148.85C37.6744 148.85 38.6277 149.82 38.6277 151.017Z" fill="black"></path><path d="M53.3345 174.46L57.947 167.399L74.7095 180.185L50.3345 178.697L53.3345 174.46Z" fill="#F98012"></path><path d="M220.622 181.139C222.182 176.926 221.272 167.909 220.622 163.926C216.335 159.802 209.849 160.3 204.985 163.087C205.685 167.298 207.145 177.559 207.385 184.918C207.625 192.276 205.172 192.399 203.672 192.971L192.047 194.307C190.097 195.643 185.822 205.299 185.822 205.299H221.747C222.872 203.81 218.672 186.406 220.622 181.139Z" fill="#282828"></path><path d="M78.1222 194.459C78.7822 187.04 76.3717 182.157 75.0847 180.643C75.0847 180.643 68.1845 173.811 63.3095 177.513C58.5845 169.422 52.247 171.368 52.247 171.368C51.7595 171.534 50.342 172.254 48.572 173.811C46.3595 175.758 38.672 179.193 25.5845 180.643C14.8813 181.829 15.5767 185.472 12.647 192.582C11.115 196.3 9.19702 205.986 9.19702 205.986H75.0847C75.0847 205.986 77.4622 201.879 78.1222 194.459Z" fill="#282828"></path><path d="M52.5387 174.498C51.5183 169.469 48.6479 160.144 45.3299 163.07C42.0119 165.998 48.7533 171.909 52.5387 174.498Z" stroke="black"></path><path d="M52.3561 174.505C49.7541 170.093 44.0065 162.241 41.8314 166.127C39.6564 170.012 47.9416 173.331 52.3561 174.505Z" stroke="black"></path><path d="M202.622 146.712L207.047 175.681C207.947 184.306 209.222 192.322 204.572 193.543C200.952 194.494 195.059 194.293 192.272 194.383C191.762 195 190.985 195.918 190.26 196.978C189.348 198.312 188.372 200.146 188.185 200.566C187.437 202.924 127.973 201.099 97.2091 200.155L96.9098 200.146C93.8596 199.281 88.4723 194.711 91.3223 183.352C93.1396 176.109 106.664 166.877 120.235 159.4C117.434 150.794 111.077 133.682 108.047 134.079C105.017 134.476 74.8221 180.261 74.8221 180.261L48.3096 160.338C48.3096 160.338 86.3873 103.347 90.0473 100.263C94.6223 96.4087 101.747 95.0728 109.585 97.6682C115.855 99.7444 148.872 128.177 164.597 142.135C166.62 142.106 168.737 142.201 170.935 142.448C173.062 142.688 175.265 143.07 177.535 143.621C178.86 143.943 180.122 144.238 181.322 144.509C184.313 145.183 186.926 145.705 189.197 146.102C198.296 147.693 201.937 147.287 202.622 146.712Z" fill="#194866"></path><path d="M140.447 150.147L122.11 158.735" stroke="black" stroke-linecap="round"></path><path d="M108.31 132.476C108.41 129.818 108.197 124.179 106.547 122.896" stroke="black" stroke-linecap="round"></path><path d="M107.039 133.532C106.721 131.837 105.78 128.307 104.56 127.74" stroke="black" stroke-linecap="round"></path><path d="M188.935 194.192C175.06 191.584 143.995 186.925 130.735 189.154C117.475 191.383 113.909 192.652 113.785 193.009" stroke="black" stroke-linecap="round"></path><path d="M168.76 152.934C170.222 159.256 176.522 171.841 190.022 171.597" stroke="black" stroke-linecap="round"></path><path d="M157.662 44.2432C157.17 53.1461 152.644 62.293 143.897 61.7918C143.592 61.7918 140.328 59.4547 140.035 59.4522C135.718 59.4162 132.676 59.0704 130.322 57.0973C126.554 53.9387 125.689 47.7683 125.985 42.428C126.478 33.5251 133.968 26.7142 142.715 27.2154C151.462 27.7167 158.155 35.3403 157.662 44.2432Z" fill="#F98012"></path><path d="M157.662 44.2431C158.155 35.3402 151.462 27.7167 142.715 27.2154C140.765 27.1037 138.878 27.3553 137.117 27.9123C138.229 30.2028 140.64 35.7881 141.379 39.8062C142.118 43.8241 142.515 45.9876 142.62 46.567C142.623 48.1043 144.063 52.4017 149.802 57.2928C154.249 54.654 157.351 49.8658 157.662 44.2431Z" fill="black"></path><path d="M142.735 27.2164C136.477 26.8578 130.862 30.2417 127.993 35.4566L157.654 42.0016C157.019 34.0947 150.737 27.675 142.735 27.2164Z" fill="#194866"></path><path d="M157.294 42.0174L116.252 33.6934" stroke="black" stroke-linecap="round"></path><path d="M141.567 50.1017C142.971 51.0401 145.016 50.3947 146.136 48.6601C147.255 46.9255 147.025 44.7586 145.621 43.8202C144.218 42.8818 142.172 43.5273 141.053 45.2619C139.933 46.9964 140.164 49.1633 141.567 50.1017Z" fill="#F98012"></path><path d="M141.586 46.4093C142.335 45.6755 144.048 45.0187 145.305 45.6148" stroke="black" stroke-linecap="round"></path><path d="M144.428 45.5166C144.52 45.8032 144.634 46.696 144.539 47.2569" stroke="black" stroke-linecap="round"></path><path d="M126.325 47.7279L129.774 43.1934L130.498 48.4338L126.325 47.7279Z" fill="#F98012"></path><path d="M129.625 43.1631L126.309 47.43L130.387 48.3138" stroke="black" stroke-linecap="round"></path><path d="M129.843 51.9836C130.376 52.0343 131.721 52.0186 132.842 51.5498" stroke="black" stroke-linecap="round"></path><path d="M131.494 39.2422C132.03 39.2526 133.365 39.422 134.428 40.0159" stroke="black" stroke-linecap="round"></path><path d="M132.263 43.9025C132.82 43.9345 133.297 43.5008 133.328 42.9339C133.359 42.3671 132.933 41.8817 132.376 41.8498C131.819 41.8179 131.342 42.2515 131.311 42.8184C131.28 43.3852 131.706 43.8706 132.263 43.9025Z" fill="black"></path><path d="M128.279 38.4465C127.747 38.3958 126.401 38.4116 125.28 38.8803" stroke="black" stroke-linecap="round"></path><path d="M126.081 42.9367C126.638 42.9686 127.115 42.535 127.146 41.9681C127.178 41.4013 126.752 40.9159 126.195 40.884C125.638 40.852 125.161 41.2857 125.13 41.8525C125.098 42.4194 125.524 42.9048 126.081 42.9367Z" fill="black"></path><path d="M134.834 49.2681C135.943 49.3316 136.894 48.4675 136.956 47.338C137.019 46.2085 136.17 45.2412 135.06 45.1776C133.95 45.1141 133 45.9782 132.937 47.1077C132.875 48.2372 133.724 49.2045 134.834 49.2681Z" fill="#F98012"></path><path d="M89.1654 80.9726C94.5444 77.6276 102.301 76.791 105.507 76.791C107.466 76.9055 111.805 78.1956 113.485 82.4397C115.165 86.6838 108.866 92.4806 105.507 94.8485C103.204 94.3416 97.6629 93.7462 93.9279 95.4187C88.4694 97.8629 78.8416 98.2193 72.8241 98.0797C66.2502 97.9278 67.1592 94.8485 68.4354 93.3279C67.5949 93.4233 65.6339 93.0432 64.5134 90.7616C63.3928 88.4807 66.6612 87.0869 68.4354 86.6754C68.5848 84.8503 70.8009 84.077 71.8903 83.919C71.9214 83.2221 72.4693 81.8092 74.4117 81.7328C76.8399 81.6382 82.4424 85.1549 89.1654 80.9726Z" fill="#F98012"></path><path d="M92.1742 88.4907C89.2898 89.122 82.815 90.1953 79.9868 89.438C76.452 88.4907 76.173 85.3664 78.6848 84.2298M76.545 84.2298C74.1261 83.6619 69.1955 83.3779 68.8233 86.787M76.08 87.7335C73.2888 86.8183 67.186 85.8779 65.1021 89.438M69.227 93.131C71.2229 93.6768 75.6923 94.9172 77.601 95.5172C79.9868 96.2676 85.5728 96.608 89.0565 96.063" stroke="black" stroke-linecap="round"></path><path d="M160.96 45.1514C151.322 47.7849 141.047 66.6392 141.047 66.6392C145.12 70.7855 151.052 70.2213 145.397 78.6999C142.522 84.1195 136.45 95.165 135.16 95.9894C133.547 97.0199 127.997 89.3102 125.522 87.8599C123.542 86.6996 122.122 87.3767 121.66 87.8599L112.847 78.6999L101.785 94.9589L110.185 102.859C109.772 103.827 109.195 106.348 110.185 108.699C111.422 111.638 118.172 117.019 121.66 122.859C125.147 128.698 129.61 133.278 134.522 135.988C138.452 138.156 141.884 135.085 143.11 133.278C142.909 134.105 142.63 136.347 143.11 138.698C143.59 141.049 141.959 146.879 141.085 149.499C142.997 148.456 149.237 145.995 158.897 144.499C168.557 143.003 181.747 147.209 187.135 149.499C192.385 150.619 202.885 151.56 202.885 146.369C202.285 137.4 195.61 87.8599 185.597 71.5627C182.115 65.8946 169.247 49.2734 160.96 45.1514Z" fill="#F98012"></path><path d="M181.991 125.013C181.725 133.736 188.457 141.027 197.027 141.298C198.841 141.355 200.591 141.093 202.227 140.562C202.227 140.562 201.013 131.186 200.069 125.203C199.112 119.132 197.353 109.703 197.353 109.703C189.068 109.782 182.251 116.508 181.991 125.013Z" fill="#69E0FF"></path><path d="M158.11 121.98C166.477 121.98 173.26 115.077 173.26 106.561C173.26 98.0451 166.477 91.1416 158.11 91.1416C149.743 91.1416 142.96 98.0451 142.96 106.561C142.96 115.077 149.743 121.98 158.11 121.98Z" fill="#69E0FF"></path><path d="M144.535 134.957C143.99 134.957 143.452 134.986 142.922 135.043C142.922 135.949 142.81 137.514 143.185 139.766C143.473 141.495 141.772 146.941 141.122 149.537C144.535 147.819 151.931 145.361 158.561 144.537C156.299 138.916 150.871 134.957 144.535 134.957Z" fill="#69E0FF"></path><path d="M116.935 98.1646C116.935 92.2854 113.702 87.1749 108.947 84.5742L101.785 94.8441L110.147 102.935C109.597 104.449 109.032 108.035 111.178 110.263C114.685 107.439 116.935 103.07 116.935 98.1646Z" fill="#69E0FF"></path><path d="M159.835 51.8306C159.835 60.3465 166.618 67.2499 174.985 67.2499C177.35 67.2499 179.59 66.698 181.585 65.7137C181.585 65.7137 175.359 57.4368 170.935 53.0138C164.635 46.7163 160.96 45.1133 160.96 45.1133C160.092 47.056 159.835 49.5576 159.835 51.8306Z" fill="#69E0FF"></path><path d="M144.197 132.4C152.072 127.019 156.227 120.431 160.247 116.218C164.267 112.004 175.885 93.4193 179.11 89.8828" stroke="black" stroke-linecap="round"></path><path d="M137.897 99.0803C138.659 100.276 140.245 103.004 140.485 104.347M135.46 98.0498C135.872 99.2711 136.712 102.576 136.772 106.027C136.832 109.477 136.797 111.332 136.772 111.828L135.46 98.0498Z" stroke="black" stroke-linecap="round"></path><path d="M176.635 98.127C176.047 99.6788 174.55 103.722 173.26 107.478" stroke="black" stroke-linecap="round"></path><path d="M158.56 49.4262L161.597 54.0444M144.422 63.7769C145.109 64.6166 147.242 66.7463 150.272 68.5477L144.422 63.7769ZM146.522 59.3114L150.272 62.0594L146.522 59.3114ZM153.01 51.7544C154.547 52.7722 157.81 55.1283 158.56 56.4107L153.01 51.7544ZM165.122 51.7544C164.372 50.5712 162.617 48.037 161.597 47.3652L165.122 51.7544ZM150.272 55.3802L155.035 59.3114L150.272 55.3802Z" stroke="black" stroke-linecap="round"></path><path d="M112.322 82.7832L118.36 87.7067M104.56 94.8439L110.972 99.5002L104.56 94.8439ZM106.847 91.447L112.322 96.3705L106.847 91.447ZM109.772 87.2487L115.247 92.6684L109.772 87.2487Z" stroke="black" stroke-linecap="round"></path></svg> 